<svg width="21" height="20" viewBox="0 0 21 20" fill="none" xmlns="http://www.w3.org/2000/svg">
<path d="M8.95833 0.234375C8.88021 0.09375 8.69792 0 8.49479 0H7.50521C7.30208 0 7.11458 0.09375 7.04167 0.234375L5.96354 2.25391C5.79688 2.56641 5.20313 2.56641 5.03646 2.25391L3.95833 0.234375C3.88021 0.09375 3.69792 0 3.49479 0H3C1.61979 0 0.5 0.839844 0.5 1.875V8.75V9.625V10H1H20H20.5V9.625V8.75V1.875C20.5 0.839844 19.3802 0 18 0H12.5052C12.3021 0 12.1146 0.09375 12.0417 0.234375L10.9635 2.25391C10.7969 2.56641 10.2031 2.56641 10.0365 2.25391L8.95833 0.234375ZM0.5 11.25V12.5C0.5 13.8789 1.99479 15 3.83333 15H7.16667V17.5C7.16667 18.8789 8.66146 20 10.5 20C12.3385 20 13.8333 18.8789 13.8333 17.5V15H17.1667C19.0052 15 20.5 13.8789 20.5 12.5V11.25H0.5ZM10.5 16.875C10.721 16.875 10.933 16.9408 11.0893 17.0581C11.2455 17.1753 11.3333 17.3342 11.3333 17.5C11.3333 17.6658 11.2455 17.8247 11.0893 17.9419C10.933 18.0592 10.721 18.125 10.5 18.125C10.279 18.125 10.067 18.0592 9.91075 17.9419C9.75447 17.8247 9.66667 17.6658 9.66667 17.5C9.66667 17.3342 9.75447 17.1753 9.91075 17.0581C10.067 16.9408 10.279 16.875 10.5 16.875Z" fill="#A855F7"/>
</svg>
