<svg width="18" height="19" viewBox="0 0 18 19" fill="none" xmlns="http://www.w3.org/2000/svg">
<path d="M16.25 0.75H1.24609C0.558594 0.75 0 1.31641 0 2.01172V16.9883C0 17.6836 0.558594 18.25 1.24609 18.25H16.25C16.9375 18.25 17.5 17.6836 17.5 16.9883V2.01172C17.5 1.31641 16.9375 0.75 16.25 0.75ZM5.28906 15.75H2.69531V7.39844H5.29297V15.75H5.28906ZM3.99219 6.25781C3.16016 6.25781 2.48828 5.58203 2.48828 4.75391C2.48828 3.92578 3.16016 3.25 3.99219 3.25C4.82031 3.25 5.49609 3.92578 5.49609 4.75391C5.49609 5.58594 4.82422 6.25781 3.99219 6.25781ZM15.0117 15.75H12.418V11.6875C12.418 10.7188 12.3984 9.47266 11.0703 9.47266C9.71875 9.47266 9.51172 10.5273 9.51172 11.6172V15.75H6.91797V7.39844H9.40625V8.53906H9.44141C9.78906 7.88281 10.6367 7.19141 11.8984 7.19141C14.5234 7.19141 15.0117 8.92188 15.0117 11.1719V15.75Z" fill="#A855F7"/>
</svg>
