<svg width="22" height="20" viewBox="0 0 22 20" fill="none" xmlns="http://www.w3.org/2000/svg">
<path d="M9.41797 1.66797L7.94531 2.21875C7.82812 2.26172 7.75 2.375 7.75 2.5C7.75 2.625 7.82812 2.73828 7.94531 2.78125L9.41797 3.33203L9.96875 4.80469C10.0117 4.92188 10.125 5 10.25 5C10.375 5 10.4883 4.92188 10.5312 4.80469L11.082 3.33203L12.5547 2.78125C12.6719 2.73828 12.75 2.625 12.75 2.5C12.75 2.375 12.6719 2.26172 12.5547 2.21875L11.082 1.66797L10.5312 0.195312C10.4883 0.078125 10.375 0 10.25 0C10.125 0 10.0117 0.078125 9.96875 0.195312L9.41797 1.66797ZM2.05078 15.4453C1.32031 16.1758 1.32031 17.3633 2.05078 18.0977L3.40234 19.4492C4.13281 20.1797 5.32031 20.1797 6.05469 19.4492L20.9492 4.55078C21.6797 3.82031 21.6797 2.63281 20.9492 1.89844L19.5977 0.550781C18.8672 -0.179688 17.6797 -0.179688 16.9453 0.550781L2.05078 15.4453ZM19.1797 3.22656L15.0781 7.32812L14.168 6.41797L18.2695 2.31641L19.1797 3.22656ZM0.542969 4.57812C0.367188 4.64453 0.25 4.8125 0.25 5C0.25 5.1875 0.367188 5.35547 0.542969 5.42188L2.75 6.25L3.57812 8.45703C3.64453 8.63281 3.8125 8.75 4 8.75C4.1875 8.75 4.35547 8.63281 4.42188 8.45703L5.25 6.25L7.45703 5.42188C7.63281 5.35547 7.75 5.1875 7.75 5C7.75 4.8125 7.63281 4.64453 7.45703 4.57812L5.25 3.75L4.42188 1.54297C4.35547 1.36719 4.1875 1.25 4 1.25C3.8125 1.25 3.64453 1.36719 3.57812 1.54297L2.75 3.75L0.542969 4.57812ZM14.293 14.5781C14.1172 14.6445 14 14.8125 14 15C14 15.1875 14.1172 15.3555 14.293 15.4219L16.5 16.25L17.3281 18.457C17.3945 18.6328 17.5625 18.75 17.75 18.75C17.9375 18.75 18.1055 18.6328 18.1719 18.457L19 16.25L21.207 15.4219C21.3828 15.3555 21.5 15.1875 21.5 15C21.5 14.8125 21.3828 14.6445 21.207 14.5781L19 13.75L18.1719 11.543C18.1055 11.3672 17.9375 11.25 17.75 11.25C17.5625 11.25 17.3945 11.3672 17.3281 11.543L16.5 13.75L14.293 14.5781Z" fill="#A855F7"/>
</svg>
