<svg width="34" height="27" viewBox="0 0 34 27" fill="none" xmlns="http://www.w3.org/2000/svg">
<path d="M17 0.625C12.2656 0.625 8.47461 2.78125 5.71484 5.34766C2.97266 7.89062 1.13867 10.9375 0.271484 13.0293C0.078125 13.4922 0.078125 14.0078 0.271484 14.4707C1.13867 16.5625 2.97266 19.6094 5.71484 22.1523C8.47461 24.7187 12.2656 26.875 17 26.875C21.7344 26.875 25.5254 24.7187 28.2852 22.1523C31.0273 19.6035 32.8613 16.5625 33.7344 14.4707C33.9277 14.0078 33.9277 13.4922 33.7344 13.0293C32.8613 10.9375 31.0273 7.89062 28.2852 5.34766C25.5254 2.78125 21.7344 0.625 17 0.625ZM8.5625 13.75C8.5625 11.5122 9.45145 9.36612 11.0338 7.78379C12.6161 6.20145 14.7622 5.3125 17 5.3125C19.2378 5.3125 21.3839 6.20145 22.9662 7.78379C24.5486 9.36612 25.4375 11.5122 25.4375 13.75C25.4375 15.9878 24.5486 18.1339 22.9662 19.7162C21.3839 21.2986 19.2378 22.1875 17 22.1875C14.7622 22.1875 12.6161 21.2986 11.0338 19.7162C9.45145 18.1339 8.5625 15.9878 8.5625 13.75ZM17 10C17 12.0684 15.3184 13.75 13.25 13.75C12.834 13.75 12.4355 13.6797 12.0605 13.5566C11.7383 13.4512 11.3633 13.6504 11.375 13.9902C11.3926 14.3945 11.4512 14.7988 11.5625 15.2031C12.3652 18.2031 15.4531 19.9844 18.4531 19.1816C21.4531 18.3789 23.2344 15.291 22.4316 12.291C21.7813 9.85938 19.6309 8.22461 17.2402 8.125C16.9004 8.11328 16.7012 8.48242 16.8066 8.81055C16.9297 9.18555 17 9.58398 17 10Z" fill="#7B1FA2"/>
</svg>
