<svg width="30" height="31" viewBox="0 0 30 31" fill="none" xmlns="http://www.w3.org/2000/svg">
<path d="M15 30.7173C18.9782 30.7173 22.7936 29.1369 25.6066 26.3239C28.4196 23.5108 30 19.6955 30 15.7173C30 11.739 28.4196 7.92373 25.6066 5.11068C22.7936 2.29764 18.9782 0.717285 15 0.717285C11.0218 0.717285 7.20644 2.29764 4.3934 5.11068C1.58035 7.92373 0 11.739 0 15.7173C0 19.6955 1.58035 23.5108 4.3934 26.3239C7.20644 29.1369 11.0218 30.7173 15 30.7173ZM17.9707 19.7661L9.51562 23.0181C8.37891 23.4575 7.25977 22.3384 7.69922 21.2017L10.9512 12.7466C11.1445 12.2485 11.5312 11.8618 12.0293 11.6685L20.4844 8.4165C21.6211 7.97705 22.7402 9.09619 22.3008 10.2329L19.0488 18.688C18.8613 19.186 18.4688 19.5728 17.9707 19.7661ZM16.875 15.7173C16.875 15.22 16.6775 14.7431 16.3258 14.3915C15.9742 14.0398 15.4973 13.8423 15 13.8423C14.5027 13.8423 14.0258 14.0398 13.6742 14.3915C13.3225 14.7431 13.125 15.22 13.125 15.7173C13.125 16.2146 13.3225 16.6915 13.6742 17.0431C14.0258 17.3947 14.5027 17.5923 15 17.5923C15.4973 17.5923 15.9742 17.3947 16.3258 17.0431C16.6775 16.6915 16.875 16.2146 16.875 15.7173Z" fill="#7B1FA2"/>
</svg>
