<svg width="15" height="15" viewBox="0 0 15 15" fill="none" xmlns="http://www.w3.org/2000/svg">
<path d="M12.7031 7.75C12.7031 9.25842 12.1039 10.7051 11.0373 11.7717C9.97068 12.8383 8.52404 13.4375 7.01562 13.4375C5.50721 13.4375 4.06057 12.8383 2.99396 11.7717C1.92734 10.7051 1.32813 9.25842 1.32812 7.75C1.32813 6.24158 1.92734 4.79494 2.99396 3.72833C4.06057 2.66172 5.50721 2.0625 7.01562 2.0625C8.52404 2.0625 9.97068 2.66172 11.0373 3.72833C12.1039 4.79494 12.7031 6.24158 12.7031 7.75ZM0.015625 7.75C0.015625 9.60652 0.753123 11.387 2.06588 12.6997C3.37863 14.0125 5.15911 14.75 7.01562 14.75C8.87214 14.75 10.6526 14.0125 11.9654 12.6997C13.2781 11.387 14.0156 9.60652 14.0156 7.75C14.0156 5.89348 13.2781 4.11301 11.9654 2.80025C10.6526 1.4875 8.87214 0.75 7.01562 0.75C5.15911 0.75 3.37863 1.4875 2.06588 2.80025C0.753123 4.11301 0.015625 5.89348 0.015625 7.75ZM6.35938 4.03125V7.75C6.35938 7.96875 6.46875 8.17383 6.65195 8.29688L9.27695 10.0469C9.57773 10.2492 9.98516 10.1672 10.1875 9.86367C10.3898 9.56016 10.3078 9.15547 10.0043 8.95312L7.67188 7.4V4.03125C7.67188 3.66758 7.3793 3.375 7.01562 3.375C6.65195 3.375 6.35938 3.66758 6.35938 4.03125Z" fill="#7B1FA2"/>
</svg>
