<svg width="13" height="15" viewBox="0 0 13 15" fill="none" xmlns="http://www.w3.org/2000/svg">
<path d="M4.15625 1.40625C4.15625 1.04258 3.86367 0.75 3.5 0.75C3.13633 0.75 2.84375 1.04258 2.84375 1.40625V2.5H1.75C0.784766 2.5 0 3.28477 0 4.25V4.6875V6V13C0 13.9652 0.784766 14.75 1.75 14.75H10.5C11.4652 14.75 12.25 13.9652 12.25 13V6V4.6875V4.25C12.25 3.28477 11.4652 2.5 10.5 2.5H9.40625V1.40625C9.40625 1.04258 9.11367 0.75 8.75 0.75C8.38633 0.75 8.09375 1.04258 8.09375 1.40625V2.5H4.15625V1.40625ZM1.3125 6H10.9375V13C10.9375 13.2406 10.7406 13.4375 10.5 13.4375H1.75C1.50937 13.4375 1.3125 13.2406 1.3125 13V6Z" fill="#7B1FA2"/>
</svg>
