<svg width="30" height="31" viewBox="0 0 30 31" fill="none" xmlns="http://www.w3.org/2000/svg">
<path d="M29.4507 13.7351C30.1831 14.7112 30.1831 16.2966 29.4507 17.2727L20.0752 29.7679C19.3427 30.744 18.1532 30.744 17.4208 29.7679C16.6883 28.7917 16.6883 27.2064 17.4208 26.2302L23.5969 17.999H1.87509C0.837931 17.999 -2.8612e-07 16.8823 -2.8612e-07 15.5C-2.8612e-07 14.1177 0.837931 13.001 1.87509 13.001H23.5969L17.4208 4.76982C16.6883 3.79364 16.6883 2.20832 17.4208 1.23214C18.1532 0.255955 19.3427 0.255955 20.0752 1.23214L29.4507 13.7273V13.7351Z" fill="white"/>
</svg>
