<svg width="16" height="16" viewBox="0 0 16 16" fill="none" xmlns="http://www.w3.org/2000/svg">
<path d="M6.59381 0.22812C6.40631 0.031245 6.12506 -0.043755 5.86256 0.024995C5.60006 0.093745 5.39693 0.30312 5.32818 0.56562L4.83443 2.51874L2.89693 1.97187C2.63443 1.89687 2.35318 1.97187 2.16256 2.16249C1.97193 2.35312 1.89693 2.63437 1.97193 2.89687L2.51881 4.83437L0.565681 5.33125C0.303181 5.39687 0.0969311 5.60312 0.0250561 5.86562C-0.0468189 6.12812 0.0313061 6.40625 0.228181 6.59375L1.67193 8L0.228181 9.40625C0.0313061 9.59375 -0.0436939 9.875 0.0250561 10.1375C0.0938061 10.4 0.303181 10.6031 0.565681 10.6719L2.51881 11.1656L1.97193 13.1031C1.89693 13.3656 1.97193 13.6469 2.16256 13.8375C2.35318 14.0281 2.63443 14.1031 2.89693 14.0281L4.83443 13.4812L5.32818 15.4344C5.39381 15.6969 5.60006 15.9031 5.86256 15.975C6.12506 16.0469 6.40318 15.9687 6.59381 15.775L8.00006 14.3312L9.40631 15.775C9.59693 15.9687 9.87506 16.0469 10.1376 15.975C10.4001 15.9031 10.6032 15.6969 10.6719 15.4344L11.1657 13.4812L13.1032 14.0281C13.3657 14.1031 13.6469 14.0281 13.8376 13.8375C14.0282 13.6469 14.1032 13.3656 14.0282 13.1031L13.4813 11.1656L15.4344 10.6719C15.6969 10.6062 15.9032 10.4 15.9751 10.1375C16.0469 9.875 15.9688 9.59687 15.7751 9.40625L14.3313 8L15.7751 6.59375C15.9688 6.40312 16.0469 6.125 15.9751 5.8625C15.9032 5.6 15.6969 5.39687 15.4344 5.32812L13.4813 4.83437L14.0282 2.89687C14.1032 2.63437 14.0282 2.35312 13.8376 2.16249C13.6469 1.97187 13.3657 1.89687 13.1032 1.97187L11.1657 2.51874L10.6688 0.56562C10.6032 0.30312 10.3969 0.09687 10.1344 0.024995C9.87193 -0.04688 9.59381 0.031245 9.40631 0.22812L8.00006 1.67187L6.59381 0.22812Z" fill="#A855F7"/>
</svg>
