<svg width="21" height="21" viewBox="0 0 21 21" fill="none" xmlns="http://www.w3.org/2000/svg">
<path d="M20.5 10.5C20.5 10.5352 20.5 10.5703 20.5 10.6055C20.4844 12.0312 19.1875 13 17.7617 13H13.9375C12.9023 13 12.0625 13.8398 12.0625 14.875C12.0625 15.0078 12.0781 15.1367 12.1016 15.2617C12.1836 15.6602 12.3555 16.043 12.5234 16.4297C12.7617 16.9688 12.9961 17.5039 12.9961 18.0703C12.9961 19.3125 12.1523 20.4414 10.9102 20.4922C10.7734 20.4961 10.6367 20.5 10.4961 20.5C4.97656 20.5 0.5 16.0234 0.5 10.5C0.5 4.97656 4.97656 0.5 10.5 0.5C16.0234 0.5 20.5 4.97656 20.5 10.5ZM5.5 11.75C5.5 11.4185 5.3683 11.1005 5.13388 10.8661C4.89946 10.6317 4.58152 10.5 4.25 10.5C3.91848 10.5 3.60054 10.6317 3.36612 10.8661C3.1317 11.1005 3 11.4185 3 11.75C3 12.0815 3.1317 12.3995 3.36612 12.6339C3.60054 12.8683 3.91848 13 4.25 13C4.58152 13 4.89946 12.8683 5.13388 12.6339C5.3683 12.3995 5.5 12.0815 5.5 11.75ZM5.5 8C5.83152 8 6.14946 7.8683 6.38388 7.63388C6.6183 7.39946 6.75 7.08152 6.75 6.75C6.75 6.41848 6.6183 6.10054 6.38388 5.86612C6.14946 5.6317 5.83152 5.5 5.5 5.5C5.16848 5.5 4.85054 5.6317 4.61612 5.86612C4.3817 6.10054 4.25 6.41848 4.25 6.75C4.25 7.08152 4.3817 7.39946 4.61612 7.63388C4.85054 7.8683 5.16848 8 5.5 8ZM11.75 4.25C11.75 3.91848 11.6183 3.60054 11.3839 3.36612C11.1495 3.1317 10.8315 3 10.5 3C10.1685 3 9.85054 3.1317 9.61612 3.36612C9.3817 3.60054 9.25 3.91848 9.25 4.25C9.25 4.58152 9.3817 4.89946 9.61612 5.13388C9.85054 5.3683 10.1685 5.5 10.5 5.5C10.8315 5.5 11.1495 5.3683 11.3839 5.13388C11.6183 4.89946 11.75 4.58152 11.75 4.25ZM15.5 8C15.8315 8 16.1495 7.8683 16.3839 7.63388C16.6183 7.39946 16.75 7.08152 16.75 6.75C16.75 6.41848 16.6183 6.10054 16.3839 5.86612C16.1495 5.6317 15.8315 5.5 15.5 5.5C15.1685 5.5 14.8505 5.6317 14.6161 5.86612C14.3817 6.10054 14.25 6.41848 14.25 6.75C14.25 7.08152 14.3817 7.39946 14.6161 7.63388C14.8505 7.8683 15.1685 8 15.5 8Z" fill="#A855F7"/>
</svg>
